<svg width="0" height="0" class="hidden">
  <symbol xmlns="http://www.w3.org/2000/svg" viewBox="0 0 1000 1000" id="email">
    <path d="M500 991.1C230.3 991.1 10 770.3 10 500S230.3 8.9 500 8.9c270.9 0 490 220.8 490 491.1S769.7 991.1 500 991.1zm0-940.3C253.3 50.8 51.9 251.6 51.9 500c0 248.5 201.5 449.2 448.1 449.2 247.9 0 448.1-201.9 448.1-449.2 0-247.2-201.4-449.2-448.1-449.2zm279.9 678.4H234.6c-30.2 0-54.8-25.3-54.8-56.6V327.4c0-31.2 24.6-56.6 54.8-56.6h545.3c30.3 0 54.8 25.4 54.8 56.6v345.2c0 31.3-24.5 56.6-54.8 56.6zm-14.5-40.5L595 532.4l-28 25.3c-16.3 14.6-36.2 22.2-59.8 22.2-23.5 0-43.5-7.5-59.7-22.2l-27.9-25.3-170.5 156.3h516.3zM220.6 348.1V660l169.8-158.1-169.8-153.8zm27.1-36.8l217.5 199.1c19 17.5 33 26.2 42.1 26.2s23.1-8.7 42.1-26.2l217.5-199.1H247.7zm546.2 36.8L624.1 501.9 793.9 660V348.1z"></path>
  </symbol>
  <symbol xmlns="http://www.w3.org/2000/svg" viewBox="0 0 297 297" id="location">
    <path d="M148.5 0C87.43 0 37.747 49.703 37.747 110.797c0 91.026 99.729 179.905 103.976 183.645a10.232 10.232 0 006.777 2.559c2.421 0 4.841-.853 6.778-2.559 4.245-3.739 103.975-92.618 103.975-183.645C259.253 49.703 209.57 0 148.5 0zm0 272.689c-22.049-21.366-90.243-93.029-90.243-161.892 0-49.784 40.483-90.287 90.243-90.287s90.243 40.503 90.243 90.287c0 68.862-68.194 140.525-90.243 161.892z"></path>
    <path d="M148.5 59.183c-28.273 0-51.274 23.154-51.274 51.614 0 28.461 23.001 51.614 51.274 51.614s51.274-23.153 51.274-51.614c0-28.46-23.001-51.614-51.274-51.614zm0 82.718c-16.964 0-30.765-13.953-30.765-31.104 0-17.15 13.801-31.104 30.765-31.104s30.765 13.953 30.765 31.104-13.801 31.104-30.765 31.104z"></path>
  </symbol>
  <symbol xmlns="http://www.w3.org/2000/svg" viewBox="0 0 512 512" id="phone">
    <path d="M256 32c123.5 0 224 100.5 224 224S379.5 480 256 480 32 379.5 32 256 132.5 32 256 32m0-32C114.625 0 0 114.625 0 256s114.625 256 256 256 256-114.625 256-256S397.375 0 256 0zm142.719 341.594l-1.438-4.375c-3.375-10.063-14.5-20.563-24.75-23.375L334.688 303.5c-10.25-2.781-24.875.969-32.406 8.5l-13.688 13.688c-49.75-13.469-88.781-52.5-102.219-102.25l13.688-13.688c7.5-7.5 11.25-22.125 8.469-32.406L198.219 139.5c-2.781-10.25-13.344-21.375-23.406-24.75l-4.313-1.438c-10.094-3.375-24.5.031-32 7.563l-20.5 20.5c-3.656 3.625-6 14.031-6 14.063-.688 65.063 24.813 127.719 70.813 173.75 45.875 45.875 108.313 71.344 173.156 70.781.344 0 11.063-2.281 14.719-5.938l20.5-20.5c7.5-7.468 10.875-21.875 7.531-31.937z"></path>
  </symbol>
    <symbol  xmlns="http://www.w3.org/2000/svg" viewBox="0 0 1024 1024" id="github">
    <path  clip-rule="evenodd" d="M512 0C229.12 0 0 229.12 0 512c0 226.56 146.56 417.92 350.08 485.76 25.6 4.48 35.2-10.88 35.2-24.32 0-12.16-.64-52.48-.64-95.36-128.64 23.68-161.92-31.36-172.16-60.16-5.76-14.72-30.72-60.16-52.48-72.32-17.92-9.6-43.52-33.28-.64-33.92 40.32-.64 69.12 37.12 78.72 52.48 46.08 77.44 119.68 55.68 149.12 42.24 4.48-33.28 17.92-55.68 32.64-68.48-113.92-12.8-232.96-56.96-232.96-252.8 0-55.68 19.84-101.76 52.48-137.6-5.12-12.8-23.04-65.28 5.12-135.68 0 0 42.88-13.44 140.8 52.48 40.96-11.52 84.48-17.28 128-17.28 43.52 0 87.04 5.76 128 17.28 97.92-66.56 140.8-52.48 140.8-52.48 28.16 70.4 10.24 122.88 5.12 135.68 32.64 35.84 52.48 81.28 52.48 137.6 0 196.48-119.68 240-233.6 252.8 18.56 16 34.56 46.72 34.56 94.72 0 68.48-.64 123.52-.64 140.8 0 13.44 9.6 29.44 35.2 24.32C877.44 929.92 1024 737.92 1024 512 1024 229.12 794.88 0 512 0z"></path>
  </symbol>
    <symbol xmlns="http://www.w3.org/2000/svg" xmlns:xlink="http://www.w3.org/1999/xlink" viewBox="0 0 552.8 205.3" id="rs-school">
    <title>rs_school_js</title>
    <path d="M285.4 68l26.3-1.7c.6 4.3 1.7 7.5 3.5 9.8 2.9 3.6 6.9 5.4 12.2 5.4 3.9 0 7-.9 9.1-2.8 2-1.5 3.2-3.9 3.2-6.4 0-2.4-1.1-4.7-3-6.2-2-1.8-6.7-3.6-14.1-5.2-12.1-2.7-20.8-6.3-25.9-10.9-5.1-4.3-8-10.6-7.8-17.3 0-4.6 1.4-9.2 4-13 3-4.3 7.1-7.7 12-9.6 5.3-2.3 12.7-3.5 22-3.5 11.4 0 20.1 2.1 26.1 6.4 6 4.2 9.6 11 10.7 20.3l-26 1.5c-.7-4-2.1-6.9-4.4-8.8s-5.3-2.8-9.2-2.8c-3.2 0-5.6.7-7.2 2-1.5 1.2-2.5 3-2.4 5 0 1.5.8 2.9 2 3.8 1.3 1.2 4.4 2.3 9.3 3.3 12.1 2.6 20.7 5.2 26 7.9 5.3 2.7 9.1 6 11.4 9.9 2.4 4 3.6 8.6 3.5 13.3 0 5.6-1.6 11.2-4.8 15.9-3.3 4.9-7.9 8.7-13.3 11-5.7 2.5-12.9 3.8-21.5 3.8-15.2 0-25.7-2.9-31.6-8.8S286.1 77 285.4 68zM6.3 97.6V8.2h46.1c8.5 0 15.1.7 19.6 2.2 4.4 1.4 8.3 4.3 10.9 8.2 2.9 4.3 4.3 9.3 4.2 14.5.3 8.8-4.2 17.2-11.9 21.6-3 1.7-6.3 2.9-9.7 3.5 2.5.7 5 1.9 7.2 3.3 1.7 1.4 3.1 3 4.4 4.7 1.5 1.7 2.8 3.6 3.9 5.6l13.4 25.9H63L48.2 70.2c-1.9-3.5-3.5-5.8-5-6.9-2-1.4-4.4-2.1-6.8-2.1H34v36.3H6.3zM34 44.4h11.7c2.5-.2 4.9-.6 7.3-1.2 1.8-.3 3.4-1.3 4.5-2.8 2.7-3.6 2.3-8.7-1-11.8-1.8-1.5-5.3-2.3-10.3-2.3H34v18.1zM0 174.2l26.3-1.7c.6 4.3 1.7 7.5 3.5 9.8 2.8 3.6 6.9 5.5 12.2 5.5 3.9 0 7-.9 9.1-2.8 2-1.6 3.2-3.9 3.2-6.4 0-2.4-1.1-4.7-3-6.2-2-1.8-6.7-3.6-14.2-5.2-12.1-2.7-20.8-6.3-25.9-10.9-5.1-4.3-8-10.6-7.8-17.3 0-4.6 1.4-9.2 4-13 3-4.3 7.1-7.7 12-9.6 5.3-2.3 12.7-3.5 22-3.5 11.4 0 20.1 2.1 26.1 6.4s9.5 11 10.6 20.3l-26 1.5c-.7-4-2.1-6.9-4.4-8.8-2.2-1.9-5.3-2.8-9.2-2.7-3.2 0-5.6.7-7.2 2.1-1.6 1.2-2.5 3-2.4 5 0 1.5.8 2.9 2 3.8 1.3 1.2 4.4 2.3 9.3 3.3 12.1 2.6 20.7 5.2 26 7.9 5.3 2.7 9.1 6 11.4 9.9 2.4 4 3.6 8.6 3.6 13.2 0 5.6-1.7 11.1-4.8 15.8-3.3 4.9-7.9 8.7-13.3 11-5.7 2.5-12.9 3.8-21.5 3.8-15.2 0-25.7-2.9-31.6-8.8-5.9-6-9.2-13.4-10-22.4z"></path>
    <path d="M133 167.2l24.2 7.3c-1.3 6.1-4 11.9-7.7 17-3.4 4.5-7.9 8-13 10.3-5.2 2.3-11.8 3.5-19.8 3.5-9.7 0-17.7-1.4-23.8-4.2-6.2-2.8-11.5-7.8-16-14.9-4.5-7.1-6.7-16.2-6.7-27.3 0-14.8 3.9-26.2 11.8-34.1s19-11.9 33.4-11.9c11.3 0 20.1 2.3 26.6 6.8 6.4 4.6 11.2 11.6 14.4 21l-24.4 5.4c-.6-2.1-1.5-4.2-2.7-6-1.5-2.1-3.4-3.7-5.7-4.9-2.3-1.2-4.9-1.7-7.5-1.7-6.3 0-11.1 2.5-14.4 7.6-2.5 3.7-3.8 9.6-3.8 17.6 0 9.9 1.5 16.7 4.5 20.4 3 3.7 7.2 5.5 12.7 5.5 5.3 0 9.3-1.5 12-4.4 2.7-3.1 4.7-7.4 5.9-13zm56.5-52.8h27.6v31.3h30.2v-31.3h27.8v89.4h-27.8v-36.2h-30.2v36.2h-27.6v-89.4z"></path>
    <path d="M271.3 159.1c0-14.6 4.1-26 12.2-34.1 8.1-8.1 19.5-12.2 34-12.2 14.9 0 26.3 4 34.4 12S364 144 364 158.4c0 10.5-1.8 19-5.3 25.7-3.4 6.6-8.7 12-15.2 15.6-6.7 3.7-15 5.6-24.9 5.6-10.1 0-18.4-1.6-25-4.8-6.8-3.4-12.4-8.7-16.1-15.2-4.1-7-6.2-15.7-6.2-26.2zm27.6.1c0 9 1.7 15.5 5 19.5 3.3 3.9 7.9 5.9 13.7 5.9 5.9 0 10.5-1.9 13.8-5.8s4.9-10.8 4.9-20.8c0-8.4-1.7-14.6-5.1-18.4-3.4-3.9-8-5.8-13.8-5.8-5.1-.2-10 2-13.4 5.9-3.4 3.9-5.1 10.4-5.1 19.5zm93.4-.1c0-14.6 4.1-26 12.2-34.1 8.1-8.1 19.5-12.2 34-12.2 14.9 0 26.4 4 34.4 12S485 144 485 158.4c0 10.5-1.8 19-5.3 25.7-3.4 6.6-8.7 12-15.2 15.6-6.7 3.7-15 5.6-24.9 5.6-10.1 0-18.4-1.6-25-4.8-6.8-3.4-12.4-8.7-16.1-15.2-4.1-7-6.2-15.7-6.2-26.2zm27.6.1c0 9 1.7 15.5 5 19.5 3.3 3.9 7.9 5.9 13.7 5.9 5.9 0 10.5-1.9 13.8-5.8 3.3-3.9 4.9-10.8 4.9-20.8 0-8.4-1.7-14.6-5.1-18.4-3.4-3.9-8-5.8-13.8-5.8-5.1-.2-10.1 2-13.4 5.9-3.4 3.9-5.1 10.4-5.1 19.5z"></path>
    <path d="M482.1 114.4h27.6v67.4h43.1v22H482v-89.4z"></path>
    <ellipse transform="rotate(-37.001 420.46 67.88)" cx="420.5" cy="67.9" rx="63" ry="51.8"></ellipse>
    <defs>
      <ellipse id="a" transform="rotate(-37.001 420.46 67.88)" cx="420.5" cy="67.9" rx="63" ry="51.8"></ellipse>
    </defs>
    <clipPath id="b">
      <use xlink:href="#a" overflow="visible"></use>
    </clipPath>
    <g clip-path="url(#b)">
      <path d="M299.325 56.54L442.918-51.667 542.28 80.185 398.687 188.394z"></path>
      <defs>
        <path id="c" transform="rotate(-37.001 420.82 68.353)" d="M330.9-14.2h179.8v165.1H330.9z"></path>
      </defs>
      <clipPath id="d">
        <use xlink:href="#c" overflow="visible"></use>
      </clipPath>
      <g clip-path="url(#d)">
        <ellipse transform="rotate(-37.001 420.46 67.88)" cx="420.5" cy="67.9" rx="63" ry="51.8"></ellipse>
        <defs>
          <ellipse id="e" transform="rotate(-37.001 420.46 67.88)" cx="420.5" cy="67.9" rx="63" ry="51.8"></ellipse>
        </defs>
        <clipPath id="f">
          <use xlink:href="#e" overflow="visible"></use>
        </clipPath>
        <g clip-path="url(#f)">
          <path d="M339.31 65.345l100.55-75.769 62.408 82.819-100.548 75.768z"></path>
          <defs>
            <path id="g" transform="rotate(-37 420.799 68.802)" d="M357.8 17h125.9v103.7H357.8z"></path>
          </defs>
          <clipPath id="h">
            <use xlink:href="#g" overflow="visible"></use>
          </clipPath>
          <g clip-path="url(#h)">
            <ellipse transform="rotate(-37.001 420.46 67.88)" cx="420.5" cy="67.9" rx="63" ry="51.8"></ellipse>
          </g>
          <path transform="rotate(-37 420.799 68.802)" d="M357.8 17h125.9v103.7H357.8z" fill="none" stroke="#000" stroke-width="4" stroke-miterlimit="10" clip-path="url(#h)"></path>
          <ellipse transform="rotate(-37.001 420.46 67.88)" cx="420.5" cy="67.9" rx="63" ry="51.8"></ellipse>
          <path d="M339.31 65.345l100.55-75.769 62.408 82.819-100.548 75.768z"></path>
          <defs>
            <path id="i" transform="rotate(-37 420.799 68.802)" d="M357.8 17h125.9v103.7H357.8z"></path>
          </defs>
          <clipPath id="j">
            <use xlink:href="#i" overflow="visible"></use>
          </clipPath>
          <g clip-path="url(#j)">
            <ellipse transform="rotate(-37.001 420.46 67.88)" cx="420.5" cy="67.9" rx="63" ry="51.8"></ellipse>
          </g>
          <path transform="rotate(-37 420.799 68.802)" d="M357.8 17h125.9v103.7H357.8z" fill="none" stroke="#000" stroke-width="4" stroke-miterlimit="10" clip-path="url(#j)"></path>
          <path d="M299.325 56.54L442.918-51.667 542.28 80.185 398.687 188.394z"></path>
        </g>
        <ellipse transform="rotate(-37.001 420.46 67.88)" cx="420.5" cy="67.9" rx="63" ry="51.8"></ellipse>
        <path d="M392.4 61.3l10-7 12.3 17.5c2.1 2.8 3.7 5.8 4.9 9.1.7 2.5.5 5.2-.5 7.6-1.3 3-3.4 5.5-6.2 7.3-3.3 2.3-6.1 3.6-8.5 4-2.3.4-4.7 0-6.9-1-2.4-1.2-4.5-2.9-6.1-5.1l8.6-8c.7 1.1 1.6 2.1 2.6 2.9.7.5 1.5.8 2.4.8.7 0 1.4-.3 1.9-.7 1-.6 1.7-1.8 1.6-3-.3-1.7-1-3.4-2.1-4.7l-14-19.7zm30 11.1l9.1-7.2c1 1.2 2.3 2.1 3.7 2.6 2 .6 4.1.2 5.8-1.1 1.2-.8 2.2-1.9 2.6-3.3.6-1.8-.4-3.8-2.2-4.4-.3-.1-.6-.2-.9-.2-1.2-.1-3.3.4-6.4 1.7-5.1 2.1-9.1 2.9-12.1 2.6-2.9-.3-5.6-1.8-7.2-4.3-1.2-1.7-1.8-3.7-1.9-5.7 0-2.3.6-4.6 1.9-6.5 1.9-2.7 4.2-5 7-6.8 4.2-2.9 7.9-4.3 11.1-4.3 3.2 0 6.2 1.5 9 4.6l-9 7.1c-1.8-2.3-5.2-2.8-7.5-1l-.3.3c-1 .6-1.7 1.5-2.1 2.6-.3.8-.1 1.7.4 2.4.4.5 1 .9 1.7.9.8.1 2.2-.3 4.2-1.2 5-2.1 8.8-3.3 11.4-3.7 2.2-.4 4.5-.2 6.6.7 1.9.8 3.5 2.2 4.6 3.9 1.4 2 2.2 4.4 2.3 6.9.1 2.6-.6 5.1-2 7.3-1.8 2.7-4.1 5-6.8 6.8-5.5 3.8-10 5.4-13.6 4.8-3.9-.6-7.1-2.6-9.4-5.5z"></path>
      </g>
    </g>
  </symbol>
</svg>
